<mxfile host="app.diagrams.net" modified="2024-05-20T08:11:22.951Z" agent="Mozilla/5.0 (Windows NT 10.0; Win64; x64) AppleWebKit/537.36 (KHTML, like Gecko) Chrome/125.0.0.0 Safari/537.36 Edg/125.0.0.0" etag="-gmNTnuNy2sAOsHW5LVf" version="24.4.4" type="device">
  <diagram id="C5RBs43oDa-KdzZeNtuy" name="Page-1">
    <mxGraphModel dx="3453" dy="1170" grid="1" gridSize="10" guides="1" tooltips="1" connect="1" arrows="1" fold="1" page="1" pageScale="1" pageWidth="827" pageHeight="1169" math="0" shadow="0">
      <root>
        <mxCell id="WIyWlLk6GJQsqaUBKTNV-0" />
        <mxCell id="WIyWlLk6GJQsqaUBKTNV-1" parent="WIyWlLk6GJQsqaUBKTNV-0" />
        <mxCell id="F9qBrlKmrHx1d3NOFzeL-1" value="&lt;font style=&quot;font-size: 18px;&quot;&gt;Flowchart proses pembelian barang dipasar&lt;/font&gt;" style="rounded=0;whiteSpace=wrap;html=1;" parent="WIyWlLk6GJQsqaUBKTNV-1" vertex="1">
          <mxGeometry x="240" width="360" height="90" as="geometry" />
        </mxCell>
        <mxCell id="F9qBrlKmrHx1d3NOFzeL-22" value="" style="edgeStyle=orthogonalEdgeStyle;rounded=0;orthogonalLoop=1;jettySize=auto;html=1;entryX=0.5;entryY=0;entryDx=0;entryDy=0;exitX=0.5;exitY=1;exitDx=0;exitDy=0;exitPerimeter=0;" parent="WIyWlLk6GJQsqaUBKTNV-1" source="rEnepYtlNAll597xaedu-25" edge="1">
          <mxGeometry relative="1" as="geometry">
            <mxPoint x="45" y="160" as="sourcePoint" />
            <mxPoint x="45" y="240" as="targetPoint" />
          </mxGeometry>
        </mxCell>
        <mxCell id="F9qBrlKmrHx1d3NOFzeL-31" value="" style="edgeStyle=orthogonalEdgeStyle;rounded=0;orthogonalLoop=1;jettySize=auto;html=1;entryX=0;entryY=0.5;entryDx=0;entryDy=0;" parent="WIyWlLk6GJQsqaUBKTNV-1" source="F9qBrlKmrHx1d3NOFzeL-11" target="F9qBrlKmrHx1d3NOFzeL-64" edge="1">
          <mxGeometry relative="1" as="geometry">
            <mxPoint x="760" y="420" as="targetPoint" />
          </mxGeometry>
        </mxCell>
        <mxCell id="F9qBrlKmrHx1d3NOFzeL-33" value="" style="edgeStyle=orthogonalEdgeStyle;rounded=0;orthogonalLoop=1;jettySize=auto;html=1;" parent="WIyWlLk6GJQsqaUBKTNV-1" source="F9qBrlKmrHx1d3NOFzeL-11" target="F9qBrlKmrHx1d3NOFzeL-32" edge="1">
          <mxGeometry relative="1" as="geometry" />
        </mxCell>
        <mxCell id="F9qBrlKmrHx1d3NOFzeL-11" value="Lapak 1 dapat semua?" style="rhombus;whiteSpace=wrap;html=1;" parent="WIyWlLk6GJQsqaUBKTNV-1" vertex="1">
          <mxGeometry x="585" y="370" width="110" height="100" as="geometry" />
        </mxCell>
        <mxCell id="F9qBrlKmrHx1d3NOFzeL-25" value="" style="edgeStyle=orthogonalEdgeStyle;rounded=0;orthogonalLoop=1;jettySize=auto;html=1;" parent="WIyWlLk6GJQsqaUBKTNV-1" source="F9qBrlKmrHx1d3NOFzeL-16" edge="1">
          <mxGeometry relative="1" as="geometry">
            <mxPoint x="45" y="672" as="targetPoint" />
          </mxGeometry>
        </mxCell>
        <mxCell id="F9qBrlKmrHx1d3NOFzeL-16" value="Sepeda" style="rhombus;whiteSpace=wrap;html=1;" parent="WIyWlLk6GJQsqaUBKTNV-1" vertex="1">
          <mxGeometry x="5" y="530" width="80" height="80" as="geometry" />
        </mxCell>
        <mxCell id="F9qBrlKmrHx1d3NOFzeL-20" value="No" style="text;html=1;align=center;verticalAlign=middle;resizable=0;points=[];autosize=1;strokeColor=none;fillColor=none;" parent="WIyWlLk6GJQsqaUBKTNV-1" vertex="1">
          <mxGeometry x="5" y="470" width="40" height="30" as="geometry" />
        </mxCell>
        <mxCell id="F9qBrlKmrHx1d3NOFzeL-23" value="" style="edgeStyle=orthogonalEdgeStyle;rounded=0;orthogonalLoop=1;jettySize=auto;html=1;entryX=0.5;entryY=0;entryDx=0;entryDy=0;exitX=0.5;exitY=1;exitDx=0;exitDy=0;" parent="WIyWlLk6GJQsqaUBKTNV-1" edge="1">
          <mxGeometry relative="1" as="geometry">
            <mxPoint x="45" y="320" as="sourcePoint" />
            <mxPoint x="45" y="378" as="targetPoint" />
            <Array as="points" />
          </mxGeometry>
        </mxCell>
        <mxCell id="F9qBrlKmrHx1d3NOFzeL-26" value="No" style="text;html=1;align=center;verticalAlign=middle;resizable=0;points=[];autosize=1;strokeColor=none;fillColor=none;" parent="WIyWlLk6GJQsqaUBKTNV-1" vertex="1">
          <mxGeometry x="5" y="620" width="40" height="30" as="geometry" />
        </mxCell>
        <mxCell id="F9qBrlKmrHx1d3NOFzeL-35" value="" style="edgeStyle=orthogonalEdgeStyle;rounded=0;orthogonalLoop=1;jettySize=auto;html=1;entryX=0.5;entryY=0;entryDx=0;entryDy=0;" parent="WIyWlLk6GJQsqaUBKTNV-1" source="F9qBrlKmrHx1d3NOFzeL-32" edge="1" target="t1_cZj8eew3tgzAQJdgb-0">
          <mxGeometry relative="1" as="geometry">
            <mxPoint x="640" y="914" as="targetPoint" />
          </mxGeometry>
        </mxCell>
        <mxCell id="F9qBrlKmrHx1d3NOFzeL-49" value="" style="edgeStyle=orthogonalEdgeStyle;rounded=0;orthogonalLoop=1;jettySize=auto;html=1;entryX=0;entryY=0.5;entryDx=0;entryDy=0;" parent="WIyWlLk6GJQsqaUBKTNV-1" source="F9qBrlKmrHx1d3NOFzeL-32" target="t1_cZj8eew3tgzAQJdgb-20" edge="1">
          <mxGeometry relative="1" as="geometry">
            <mxPoint x="940" y="634" as="targetPoint" />
          </mxGeometry>
        </mxCell>
        <mxCell id="F9qBrlKmrHx1d3NOFzeL-32" value="Uang cukup?" style="rhombus;whiteSpace=wrap;html=1;" parent="WIyWlLk6GJQsqaUBKTNV-1" vertex="1">
          <mxGeometry x="600" y="594" width="80" height="80" as="geometry" />
        </mxCell>
        <mxCell id="F9qBrlKmrHx1d3NOFzeL-38" value="Yes" style="text;html=1;align=center;verticalAlign=middle;resizable=0;points=[];autosize=1;strokeColor=none;fillColor=none;" parent="WIyWlLk6GJQsqaUBKTNV-1" vertex="1">
          <mxGeometry x="600" y="708" width="40" height="30" as="geometry" />
        </mxCell>
        <mxCell id="F9qBrlKmrHx1d3NOFzeL-60" value="" style="edgeStyle=orthogonalEdgeStyle;rounded=0;orthogonalLoop=1;jettySize=auto;html=1;entryX=0.5;entryY=0;entryDx=0;entryDy=0;entryPerimeter=0;exitX=0.5;exitY=1;exitDx=0;exitDy=0;" parent="WIyWlLk6GJQsqaUBKTNV-1" source="t1_cZj8eew3tgzAQJdgb-8" target="rEnepYtlNAll597xaedu-23" edge="1">
          <mxGeometry relative="1" as="geometry">
            <mxPoint x="810" y="1084" as="targetPoint" />
            <mxPoint x="810" y="994" as="sourcePoint" />
          </mxGeometry>
        </mxCell>
        <mxCell id="F9qBrlKmrHx1d3NOFzeL-45" value="Yes" style="text;html=1;align=center;verticalAlign=middle;resizable=0;points=[];autosize=1;strokeColor=none;fillColor=none;" parent="WIyWlLk6GJQsqaUBKTNV-1" vertex="1">
          <mxGeometry x="600" y="497" width="40" height="30" as="geometry" />
        </mxCell>
        <mxCell id="F9qBrlKmrHx1d3NOFzeL-78" value="" style="edgeStyle=orthogonalEdgeStyle;rounded=0;orthogonalLoop=1;jettySize=auto;html=1;exitX=1;exitY=0.5;exitDx=0;exitDy=0;entryX=0;entryY=0.5;entryDx=0;entryDy=0;" parent="WIyWlLk6GJQsqaUBKTNV-1" source="t1_cZj8eew3tgzAQJdgb-20" target="F9qBrlKmrHx1d3NOFzeL-77" edge="1">
          <mxGeometry relative="1" as="geometry">
            <mxPoint x="840" y="634" as="sourcePoint" />
            <mxPoint x="930.0000000000114" y="634" as="targetPoint" />
          </mxGeometry>
        </mxCell>
        <mxCell id="F9qBrlKmrHx1d3NOFzeL-50" value="No" style="text;html=1;align=center;verticalAlign=middle;resizable=0;points=[];autosize=1;strokeColor=none;fillColor=none;" parent="WIyWlLk6GJQsqaUBKTNV-1" vertex="1">
          <mxGeometry x="710" y="388" width="40" height="30" as="geometry" />
        </mxCell>
        <mxCell id="F9qBrlKmrHx1d3NOFzeL-58" value="No" style="text;html=1;align=center;verticalAlign=middle;resizable=0;points=[];autosize=1;strokeColor=none;fillColor=none;" parent="WIyWlLk6GJQsqaUBKTNV-1" vertex="1">
          <mxGeometry x="790" y="592" width="40" height="30" as="geometry" />
        </mxCell>
        <mxCell id="F9qBrlKmrHx1d3NOFzeL-66" value="" style="edgeStyle=orthogonalEdgeStyle;rounded=0;orthogonalLoop=1;jettySize=auto;html=1;" parent="WIyWlLk6GJQsqaUBKTNV-1" source="F9qBrlKmrHx1d3NOFzeL-64" target="F9qBrlKmrHx1d3NOFzeL-65" edge="1">
          <mxGeometry relative="1" as="geometry" />
        </mxCell>
        <mxCell id="F9qBrlKmrHx1d3NOFzeL-64" value="Kurang a" style="shape=parallelogram;perimeter=parallelogramPerimeter;whiteSpace=wrap;html=1;fixedSize=1;" parent="WIyWlLk6GJQsqaUBKTNV-1" vertex="1">
          <mxGeometry x="760" y="390" width="120" height="60" as="geometry" />
        </mxCell>
        <mxCell id="F9qBrlKmrHx1d3NOFzeL-68" value="" style="edgeStyle=orthogonalEdgeStyle;rounded=0;orthogonalLoop=1;jettySize=auto;html=1;entryX=0;entryY=0.5;entryDx=0;entryDy=0;" parent="WIyWlLk6GJQsqaUBKTNV-1" source="F9qBrlKmrHx1d3NOFzeL-65" target="F9qBrlKmrHx1d3NOFzeL-86" edge="1">
          <mxGeometry relative="1" as="geometry">
            <mxPoint x="1140" y="420" as="targetPoint" />
          </mxGeometry>
        </mxCell>
        <mxCell id="F9qBrlKmrHx1d3NOFzeL-65" value="Mencari a di lapak ke 2" style="whiteSpace=wrap;html=1;" parent="WIyWlLk6GJQsqaUBKTNV-1" vertex="1">
          <mxGeometry x="940" y="390" width="120" height="60" as="geometry" />
        </mxCell>
        <mxCell id="F9qBrlKmrHx1d3NOFzeL-84" value="" style="edgeStyle=orthogonalEdgeStyle;rounded=0;orthogonalLoop=1;jettySize=auto;html=1;" parent="WIyWlLk6GJQsqaUBKTNV-1" source="F9qBrlKmrHx1d3NOFzeL-69" target="F9qBrlKmrHx1d3NOFzeL-83" edge="1">
          <mxGeometry relative="1" as="geometry" />
        </mxCell>
        <mxCell id="F9qBrlKmrHx1d3NOFzeL-69" value="mencari a di lapak ke n" style="whiteSpace=wrap;html=1;" parent="WIyWlLk6GJQsqaUBKTNV-1" vertex="1">
          <mxGeometry x="1330" y="390" width="120" height="60" as="geometry" />
        </mxCell>
        <mxCell id="F9qBrlKmrHx1d3NOFzeL-72" value="Yes" style="text;html=1;align=center;verticalAlign=middle;resizable=0;points=[];autosize=1;strokeColor=none;fillColor=none;" parent="WIyWlLk6GJQsqaUBKTNV-1" vertex="1">
          <mxGeometry x="1160" y="490" width="40" height="30" as="geometry" />
        </mxCell>
        <mxCell id="F9qBrlKmrHx1d3NOFzeL-75" value="" style="edgeStyle=orthogonalEdgeStyle;rounded=0;orthogonalLoop=1;jettySize=auto;html=1;" parent="WIyWlLk6GJQsqaUBKTNV-1" source="F9qBrlKmrHx1d3NOFzeL-73" target="F9qBrlKmrHx1d3NOFzeL-11" edge="1">
          <mxGeometry relative="1" as="geometry" />
        </mxCell>
        <mxCell id="F9qBrlKmrHx1d3NOFzeL-73" value="Mencari semua di lapak 1" style="whiteSpace=wrap;html=1;" parent="WIyWlLk6GJQsqaUBKTNV-1" vertex="1">
          <mxGeometry x="390" y="390" width="120" height="60" as="geometry" />
        </mxCell>
        <mxCell id="F9qBrlKmrHx1d3NOFzeL-77" value="A/D" style="ellipse;whiteSpace=wrap;html=1;" parent="WIyWlLk6GJQsqaUBKTNV-1" vertex="1">
          <mxGeometry x="930" y="604" width="60" height="60" as="geometry" />
        </mxCell>
        <mxCell id="F9qBrlKmrHx1d3NOFzeL-92" value="" style="edgeStyle=orthogonalEdgeStyle;rounded=0;orthogonalLoop=1;jettySize=auto;html=1;" parent="WIyWlLk6GJQsqaUBKTNV-1" source="F9qBrlKmrHx1d3NOFzeL-83" target="F9qBrlKmrHx1d3NOFzeL-91" edge="1">
          <mxGeometry relative="1" as="geometry" />
        </mxCell>
        <mxCell id="F9qBrlKmrHx1d3NOFzeL-83" value="lapak ke n dapat semua ?" style="rhombus;whiteSpace=wrap;html=1;" parent="WIyWlLk6GJQsqaUBKTNV-1" vertex="1">
          <mxGeometry x="1520" y="360" width="120" height="120" as="geometry" />
        </mxCell>
        <mxCell id="F9qBrlKmrHx1d3NOFzeL-87" value="" style="edgeStyle=orthogonalEdgeStyle;rounded=0;orthogonalLoop=1;jettySize=auto;html=1;" parent="WIyWlLk6GJQsqaUBKTNV-1" source="F9qBrlKmrHx1d3NOFzeL-86" target="F9qBrlKmrHx1d3NOFzeL-69" edge="1">
          <mxGeometry relative="1" as="geometry" />
        </mxCell>
        <mxCell id="t1_cZj8eew3tgzAQJdgb-4" value="" style="edgeStyle=orthogonalEdgeStyle;rounded=0;orthogonalLoop=1;jettySize=auto;html=1;entryX=0.5;entryY=0;entryDx=0;entryDy=0;" edge="1" parent="WIyWlLk6GJQsqaUBKTNV-1" source="F9qBrlKmrHx1d3NOFzeL-86" target="t1_cZj8eew3tgzAQJdgb-6">
          <mxGeometry relative="1" as="geometry">
            <Array as="points">
              <mxPoint x="1200" y="550" />
              <mxPoint x="1390" y="550" />
            </Array>
          </mxGeometry>
        </mxCell>
        <mxCell id="F9qBrlKmrHx1d3NOFzeL-86" value="a didapatkan ?" style="rhombus;whiteSpace=wrap;html=1;" parent="WIyWlLk6GJQsqaUBKTNV-1" vertex="1">
          <mxGeometry x="1150" y="375" width="100" height="90" as="geometry" />
        </mxCell>
        <mxCell id="F9qBrlKmrHx1d3NOFzeL-88" value="No" style="text;html=1;align=center;verticalAlign=middle;resizable=0;points=[];autosize=1;strokeColor=none;fillColor=none;" parent="WIyWlLk6GJQsqaUBKTNV-1" vertex="1">
          <mxGeometry x="1260" y="390" width="40" height="30" as="geometry" />
        </mxCell>
        <mxCell id="F9qBrlKmrHx1d3NOFzeL-89" value="" style="endArrow=classic;html=1;rounded=0;exitX=0.5;exitY=1;exitDx=0;exitDy=0;entryX=0.5;entryY=0;entryDx=0;entryDy=0;" parent="WIyWlLk6GJQsqaUBKTNV-1" source="F9qBrlKmrHx1d3NOFzeL-83" edge="1" target="t1_cZj8eew3tgzAQJdgb-6">
          <mxGeometry width="50" height="50" relative="1" as="geometry">
            <mxPoint x="1280" y="560" as="sourcePoint" />
            <mxPoint x="1200" y="890" as="targetPoint" />
            <Array as="points">
              <mxPoint x="1580" y="550" />
              <mxPoint x="1390" y="550" />
            </Array>
          </mxGeometry>
        </mxCell>
        <mxCell id="F9qBrlKmrHx1d3NOFzeL-90" value="Yes" style="text;html=1;align=center;verticalAlign=middle;resizable=0;points=[];autosize=1;strokeColor=none;fillColor=none;" parent="WIyWlLk6GJQsqaUBKTNV-1" vertex="1">
          <mxGeometry x="1540" y="500" width="40" height="30" as="geometry" />
        </mxCell>
        <mxCell id="F9qBrlKmrHx1d3NOFzeL-91" value="B" style="ellipse;whiteSpace=wrap;html=1;" parent="WIyWlLk6GJQsqaUBKTNV-1" vertex="1">
          <mxGeometry x="1740" y="390" width="70" height="60" as="geometry" />
        </mxCell>
        <mxCell id="F9qBrlKmrHx1d3NOFzeL-96" value="" style="edgeStyle=orthogonalEdgeStyle;rounded=0;orthogonalLoop=1;jettySize=auto;html=1;" parent="WIyWlLk6GJQsqaUBKTNV-1" source="F9qBrlKmrHx1d3NOFzeL-95" target="F9qBrlKmrHx1d3NOFzeL-69" edge="1">
          <mxGeometry relative="1" as="geometry" />
        </mxCell>
        <mxCell id="F9qBrlKmrHx1d3NOFzeL-95" value="B" style="ellipse;whiteSpace=wrap;html=1;" parent="WIyWlLk6GJQsqaUBKTNV-1" vertex="1">
          <mxGeometry x="1355" y="250" width="70" height="60" as="geometry" />
        </mxCell>
        <mxCell id="F9qBrlKmrHx1d3NOFzeL-101" value="No" style="text;html=1;align=center;verticalAlign=middle;resizable=0;points=[];autosize=1;strokeColor=none;fillColor=none;" parent="WIyWlLk6GJQsqaUBKTNV-1" vertex="1">
          <mxGeometry x="1670" y="388" width="40" height="30" as="geometry" />
        </mxCell>
        <mxCell id="rEnepYtlNAll597xaedu-1" value="" style="edgeStyle=orthogonalEdgeStyle;rounded=0;orthogonalLoop=1;jettySize=auto;html=1;" parent="WIyWlLk6GJQsqaUBKTNV-1" source="rEnepYtlNAll597xaedu-0" target="F9qBrlKmrHx1d3NOFzeL-73" edge="1">
          <mxGeometry relative="1" as="geometry" />
        </mxCell>
        <mxCell id="rEnepYtlNAll597xaedu-0" value="Berangkat ke pasar" style="rounded=0;whiteSpace=wrap;html=1;" parent="WIyWlLk6GJQsqaUBKTNV-1" vertex="1">
          <mxGeometry x="180" y="390" width="120" height="60" as="geometry" />
        </mxCell>
        <mxCell id="rEnepYtlNAll597xaedu-4" value="" style="edgeStyle=orthogonalEdgeStyle;rounded=0;orthogonalLoop=1;jettySize=auto;html=1;" parent="WIyWlLk6GJQsqaUBKTNV-1" source="rEnepYtlNAll597xaedu-3" target="F9qBrlKmrHx1d3NOFzeL-16" edge="1">
          <mxGeometry relative="1" as="geometry" />
        </mxCell>
        <mxCell id="rEnepYtlNAll597xaedu-5" value="" style="edgeStyle=orthogonalEdgeStyle;rounded=0;orthogonalLoop=1;jettySize=auto;html=1;" parent="WIyWlLk6GJQsqaUBKTNV-1" source="rEnepYtlNAll597xaedu-3" target="rEnepYtlNAll597xaedu-0" edge="1">
          <mxGeometry relative="1" as="geometry" />
        </mxCell>
        <mxCell id="rEnepYtlNAll597xaedu-3" value="Motor" style="rhombus;whiteSpace=wrap;html=1;" parent="WIyWlLk6GJQsqaUBKTNV-1" vertex="1">
          <mxGeometry x="5" y="380" width="80" height="80" as="geometry" />
        </mxCell>
        <mxCell id="rEnepYtlNAll597xaedu-6" value="" style="endArrow=classic;html=1;rounded=0;exitX=1;exitY=0.5;exitDx=0;exitDy=0;" parent="WIyWlLk6GJQsqaUBKTNV-1" source="rEnepYtlNAll597xaedu-9" edge="1">
          <mxGeometry width="50" height="50" relative="1" as="geometry">
            <mxPoint x="85" y="712" as="sourcePoint" />
            <mxPoint x="240" y="570" as="targetPoint" />
            <Array as="points">
              <mxPoint x="240" y="710" />
            </Array>
          </mxGeometry>
        </mxCell>
        <mxCell id="rEnepYtlNAll597xaedu-7" value="" style="endArrow=classic;html=1;rounded=0;exitX=1;exitY=0.5;exitDx=0;exitDy=0;entryX=0.5;entryY=1;entryDx=0;entryDy=0;" parent="WIyWlLk6GJQsqaUBKTNV-1" source="F9qBrlKmrHx1d3NOFzeL-16" target="rEnepYtlNAll597xaedu-0" edge="1">
          <mxGeometry width="50" height="50" relative="1" as="geometry">
            <mxPoint x="320" y="550" as="sourcePoint" />
            <mxPoint x="370" y="500" as="targetPoint" />
            <Array as="points">
              <mxPoint x="240" y="570" />
            </Array>
          </mxGeometry>
        </mxCell>
        <mxCell id="rEnepYtlNAll597xaedu-8" value="Yes" style="text;html=1;align=center;verticalAlign=middle;resizable=0;points=[];autosize=1;strokeColor=none;fillColor=none;" parent="WIyWlLk6GJQsqaUBKTNV-1" vertex="1">
          <mxGeometry x="140" y="538" width="40" height="30" as="geometry" />
        </mxCell>
        <mxCell id="rEnepYtlNAll597xaedu-13" value="" style="edgeStyle=orthogonalEdgeStyle;rounded=0;orthogonalLoop=1;jettySize=auto;html=1;entryX=0.5;entryY=0;entryDx=0;entryDy=0;" parent="WIyWlLk6GJQsqaUBKTNV-1" source="rEnepYtlNAll597xaedu-9" target="rEnepYtlNAll597xaedu-26" edge="1">
          <mxGeometry relative="1" as="geometry">
            <mxPoint x="45" y="818" as="targetPoint" />
          </mxGeometry>
        </mxCell>
        <mxCell id="rEnepYtlNAll597xaedu-9" value="Jalan kaki" style="rhombus;whiteSpace=wrap;html=1;" parent="WIyWlLk6GJQsqaUBKTNV-1" vertex="1">
          <mxGeometry x="5" y="670" width="80" height="80" as="geometry" />
        </mxCell>
        <mxCell id="rEnepYtlNAll597xaedu-10" value="Yes" style="text;html=1;align=center;verticalAlign=middle;resizable=0;points=[];autosize=1;strokeColor=none;fillColor=none;" parent="WIyWlLk6GJQsqaUBKTNV-1" vertex="1">
          <mxGeometry x="140" y="688" width="40" height="30" as="geometry" />
        </mxCell>
        <mxCell id="rEnepYtlNAll597xaedu-11" value="Yes" style="text;html=1;align=center;verticalAlign=middle;resizable=0;points=[];autosize=1;strokeColor=none;fillColor=none;" parent="WIyWlLk6GJQsqaUBKTNV-1" vertex="1">
          <mxGeometry x="100" y="390" width="40" height="30" as="geometry" />
        </mxCell>
        <mxCell id="rEnepYtlNAll597xaedu-14" value="" style="endArrow=classic;html=1;rounded=0;exitX=0.875;exitY=0.536;exitDx=0;exitDy=0;exitPerimeter=0;" parent="WIyWlLk6GJQsqaUBKTNV-1" source="rEnepYtlNAll597xaedu-26" edge="1">
          <mxGeometry width="50" height="50" relative="1" as="geometry">
            <mxPoint x="105" y="850" as="sourcePoint" />
            <mxPoint x="240" y="710" as="targetPoint" />
            <Array as="points">
              <mxPoint x="240" y="850" />
            </Array>
          </mxGeometry>
        </mxCell>
        <mxCell id="rEnepYtlNAll597xaedu-15" value="No" style="text;html=1;align=center;verticalAlign=middle;resizable=0;points=[];autosize=1;strokeColor=none;fillColor=none;" parent="WIyWlLk6GJQsqaUBKTNV-1" vertex="1">
          <mxGeometry x="5" y="770" width="40" height="30" as="geometry" />
        </mxCell>
        <mxCell id="rEnepYtlNAll597xaedu-23" value="SELESAI" style="strokeWidth=2;html=1;shape=mxgraph.flowchart.terminator;whiteSpace=wrap;" parent="WIyWlLk6GJQsqaUBKTNV-1" vertex="1">
          <mxGeometry x="750" y="1084" width="120" height="60" as="geometry" />
        </mxCell>
        <mxCell id="rEnepYtlNAll597xaedu-25" value="Start" style="strokeWidth=2;html=1;shape=mxgraph.flowchart.terminator;whiteSpace=wrap;" parent="WIyWlLk6GJQsqaUBKTNV-1" vertex="1">
          <mxGeometry x="-15" y="100" width="120" height="60" as="geometry" />
        </mxCell>
        <mxCell id="rEnepYtlNAll597xaedu-26" value="Naik angkutan umum" style="shape=parallelogram;html=1;strokeWidth=2;perimeter=parallelogramPerimeter;whiteSpace=wrap;rounded=1;arcSize=12;size=0.23;" parent="WIyWlLk6GJQsqaUBKTNV-1" vertex="1">
          <mxGeometry x="-40" y="810" width="170" height="80" as="geometry" />
        </mxCell>
        <mxCell id="t1_cZj8eew3tgzAQJdgb-0" value="Lakukan proses pembayaran" style="rounded=0;whiteSpace=wrap;html=1;" vertex="1" parent="WIyWlLk6GJQsqaUBKTNV-1">
          <mxGeometry x="580" y="782" width="120" height="60" as="geometry" />
        </mxCell>
        <mxCell id="t1_cZj8eew3tgzAQJdgb-1" value="" style="endArrow=classic;html=1;rounded=0;exitX=0.5;exitY=1;exitDx=0;exitDy=0;entryX=-0.041;entryY=0.549;entryDx=0;entryDy=0;entryPerimeter=0;" edge="1" parent="WIyWlLk6GJQsqaUBKTNV-1" source="t1_cZj8eew3tgzAQJdgb-0" target="t1_cZj8eew3tgzAQJdgb-8">
          <mxGeometry width="50" height="50" relative="1" as="geometry">
            <mxPoint x="620" y="834" as="sourcePoint" />
            <mxPoint x="640" y="914" as="targetPoint" />
            <Array as="points">
              <mxPoint x="640" y="957" />
            </Array>
          </mxGeometry>
        </mxCell>
        <mxCell id="t1_cZj8eew3tgzAQJdgb-2" value="&lt;span style=&quot;text-wrap: nowrap;&quot;&gt;1. Telur&lt;/span&gt;&lt;div style=&quot;text-wrap: nowrap;&quot;&gt;2. Minyak&lt;/div&gt;&lt;div style=&quot;text-wrap: nowrap;&quot;&gt;3. Gula&lt;/div&gt;" style="shape=hexagon;perimeter=hexagonPerimeter2;whiteSpace=wrap;html=1;fixedSize=1;" vertex="1" parent="WIyWlLk6GJQsqaUBKTNV-1">
          <mxGeometry x="-15" y="240" width="120" height="80" as="geometry" />
        </mxCell>
        <mxCell id="t1_cZj8eew3tgzAQJdgb-3" value="Lakukan proses pembayaran" style="rounded=0;whiteSpace=wrap;html=1;" vertex="1" parent="WIyWlLk6GJQsqaUBKTNV-1">
          <mxGeometry x="1140" y="924" width="120" height="60" as="geometry" />
        </mxCell>
        <mxCell id="t1_cZj8eew3tgzAQJdgb-5" value="" style="endArrow=classic;html=1;rounded=0;exitX=0;exitY=0.5;exitDx=0;exitDy=0;entryX=1;entryY=0.5;entryDx=0;entryDy=0;" edge="1" parent="WIyWlLk6GJQsqaUBKTNV-1" source="t1_cZj8eew3tgzAQJdgb-3" target="t1_cZj8eew3tgzAQJdgb-8">
          <mxGeometry width="50" height="50" relative="1" as="geometry">
            <mxPoint x="920" y="834" as="sourcePoint" />
            <mxPoint x="1019.9999999999995" y="954" as="targetPoint" />
          </mxGeometry>
        </mxCell>
        <mxCell id="t1_cZj8eew3tgzAQJdgb-10" value="" style="edgeStyle=orthogonalEdgeStyle;rounded=0;orthogonalLoop=1;jettySize=auto;html=1;entryX=0;entryY=0.5;entryDx=0;entryDy=0;" edge="1" parent="WIyWlLk6GJQsqaUBKTNV-1" source="t1_cZj8eew3tgzAQJdgb-6" target="t1_cZj8eew3tgzAQJdgb-11">
          <mxGeometry relative="1" as="geometry">
            <mxPoint x="1550" y="657.5" as="targetPoint" />
          </mxGeometry>
        </mxCell>
        <mxCell id="t1_cZj8eew3tgzAQJdgb-6" value="Apakah uang cukup?" style="rhombus;whiteSpace=wrap;html=1;" vertex="1" parent="WIyWlLk6GJQsqaUBKTNV-1">
          <mxGeometry x="1330" y="597" width="120" height="121" as="geometry" />
        </mxCell>
        <mxCell id="t1_cZj8eew3tgzAQJdgb-7" value="" style="endArrow=classic;html=1;rounded=0;exitX=0.5;exitY=1;exitDx=0;exitDy=0;entryX=1;entryY=0.5;entryDx=0;entryDy=0;" edge="1" parent="WIyWlLk6GJQsqaUBKTNV-1" source="t1_cZj8eew3tgzAQJdgb-6" target="t1_cZj8eew3tgzAQJdgb-3">
          <mxGeometry width="50" height="50" relative="1" as="geometry">
            <mxPoint x="1250" y="800" as="sourcePoint" />
            <mxPoint x="1300" y="750" as="targetPoint" />
            <Array as="points">
              <mxPoint x="1390" y="954" />
            </Array>
          </mxGeometry>
        </mxCell>
        <mxCell id="t1_cZj8eew3tgzAQJdgb-8" value="Pulang" style="rounded=0;whiteSpace=wrap;html=1;" vertex="1" parent="WIyWlLk6GJQsqaUBKTNV-1">
          <mxGeometry x="750" y="924" width="120" height="60" as="geometry" />
        </mxCell>
        <mxCell id="t1_cZj8eew3tgzAQJdgb-11" value="C" style="ellipse;whiteSpace=wrap;html=1;" vertex="1" parent="WIyWlLk6GJQsqaUBKTNV-1">
          <mxGeometry x="1560" y="627" width="60" height="60" as="geometry" />
        </mxCell>
        <mxCell id="t1_cZj8eew3tgzAQJdgb-13" value="" style="edgeStyle=orthogonalEdgeStyle;rounded=0;orthogonalLoop=1;jettySize=auto;html=1;entryX=0.5;entryY=0;entryDx=0;entryDy=0;" edge="1" parent="WIyWlLk6GJQsqaUBKTNV-1" source="t1_cZj8eew3tgzAQJdgb-12" target="t1_cZj8eew3tgzAQJdgb-20">
          <mxGeometry relative="1" as="geometry">
            <mxPoint x="800" y="594" as="targetPoint" />
          </mxGeometry>
        </mxCell>
        <mxCell id="t1_cZj8eew3tgzAQJdgb-12" value="C" style="ellipse;whiteSpace=wrap;html=1;" vertex="1" parent="WIyWlLk6GJQsqaUBKTNV-1">
          <mxGeometry x="770" y="482" width="60" height="60" as="geometry" />
        </mxCell>
        <mxCell id="t1_cZj8eew3tgzAQJdgb-14" value="Yes" style="text;html=1;align=center;verticalAlign=middle;resizable=0;points=[];autosize=1;strokeColor=none;fillColor=none;" vertex="1" parent="WIyWlLk6GJQsqaUBKTNV-1">
          <mxGeometry x="1350" y="740" width="40" height="30" as="geometry" />
        </mxCell>
        <mxCell id="t1_cZj8eew3tgzAQJdgb-15" value="No" style="text;html=1;align=center;verticalAlign=middle;resizable=0;points=[];autosize=1;strokeColor=none;fillColor=none;" vertex="1" parent="WIyWlLk6GJQsqaUBKTNV-1">
          <mxGeometry x="1470" y="628" width="40" height="30" as="geometry" />
        </mxCell>
        <mxCell id="t1_cZj8eew3tgzAQJdgb-18" value="" style="edgeStyle=orthogonalEdgeStyle;rounded=0;orthogonalLoop=1;jettySize=auto;html=1;" edge="1" parent="WIyWlLk6GJQsqaUBKTNV-1" source="t1_cZj8eew3tgzAQJdgb-17" target="t1_cZj8eew3tgzAQJdgb-3">
          <mxGeometry relative="1" as="geometry" />
        </mxCell>
        <mxCell id="t1_cZj8eew3tgzAQJdgb-17" value="D" style="ellipse;whiteSpace=wrap;html=1;" vertex="1" parent="WIyWlLk6GJQsqaUBKTNV-1">
          <mxGeometry x="1170" y="792" width="60" height="60" as="geometry" />
        </mxCell>
        <mxCell id="t1_cZj8eew3tgzAQJdgb-20" value="Ambil di atm" style="rounded=0;whiteSpace=wrap;html=1;" vertex="1" parent="WIyWlLk6GJQsqaUBKTNV-1">
          <mxGeometry x="740" y="604" width="120" height="60" as="geometry" />
        </mxCell>
        <mxCell id="t1_cZj8eew3tgzAQJdgb-21" value="No" style="text;html=1;align=center;verticalAlign=middle;resizable=0;points=[];autosize=1;strokeColor=none;fillColor=none;" vertex="1" parent="WIyWlLk6GJQsqaUBKTNV-1">
          <mxGeometry x="685" y="602" width="40" height="30" as="geometry" />
        </mxCell>
        <mxCell id="t1_cZj8eew3tgzAQJdgb-23" value="" style="edgeStyle=orthogonalEdgeStyle;rounded=0;orthogonalLoop=1;jettySize=auto;html=1;" edge="1" parent="WIyWlLk6GJQsqaUBKTNV-1" source="t1_cZj8eew3tgzAQJdgb-22" target="t1_cZj8eew3tgzAQJdgb-0">
          <mxGeometry relative="1" as="geometry" />
        </mxCell>
        <mxCell id="t1_cZj8eew3tgzAQJdgb-22" value="A" style="ellipse;whiteSpace=wrap;html=1;" vertex="1" parent="WIyWlLk6GJQsqaUBKTNV-1">
          <mxGeometry x="440" y="786" width="60" height="52" as="geometry" />
        </mxCell>
      </root>
    </mxGraphModel>
  </diagram>
</mxfile>
